<?xml version="1.0" encoding="UTF-8"?>
<svg xmlns="http://www.w3.org/2000/svg" viewBox="0 0 400 100" width="400" height="100">
  <!-- BioTune Logo - Light Mode Version (Dark "Tune") -->
  
  <!-- "B" Letter - Red -->
  <path d="M10 20h25c12 0 20 8 20 18s-6 14-14 16c10 2 18 8 18 20 0 12-10 22-24 22H10V20zm15 28h8c6 0 10-4 10-10s-4-10-10-10h-8v20zm0 36h10c8 0 14-5 14-13s-6-13-14-13h-10v26z" fill="#ff0000"/>
  
  <!-- "i" Letter - Red -->
  <path d="M70 20h14v10H70V20zm0 20h14v56H70V40z" fill="#ff0000"/>
  
  <!-- Molecular Symbol (between Bio and Tune) - Red -->
  <g fill="#ff0000">
    <!-- Center circle -->
    <circle cx="120" cy="60" r="12" fill="none" stroke="#ff0000" stroke-width="3"/>
    <!-- Outer ring -->
    <circle cx="120" cy="60" r="22" fill="none" stroke="#ff0000" stroke-width="2"/>
    <!-- Top node -->
    <circle cx="120" cy="32" r="5"/>
    <line x1="120" y1="38" x2="120" y2="48" stroke="#ff0000" stroke-width="2"/>
    <!-- Bottom node -->
    <circle cx="120" cy="88" r="5"/>
    <line x1="120" y1="72" x2="120" y2="82" stroke="#ff0000" stroke-width="2"/>
    <!-- Left node -->
    <circle cx="92" cy="60" r="5"/>
    <line x1="98" y1="60" x2="108" y2="60" stroke="#ff0000" stroke-width="2"/>
    <!-- Right node -->
    <circle cx="148" cy="60" r="5"/>
    <line x1="132" y1="60" x2="142" y2="60" stroke="#ff0000" stroke-width="2"/>
    <!-- Diagonal lines inside -->
    <line x1="108" y1="48" x2="132" y2="72" stroke="#ff0000" stroke-width="2"/>
    <line x1="132" y1="48" x2="108" y2="72" stroke="#ff0000" stroke-width="2"/>
  </g>
  
  <!-- "T" Letter - Dark (for light backgrounds) -->
  <path d="M165 20h60v12h-23v64h-14V32h-23V20z" fill="#2a2a2a"/>
  
  <!-- "u" Letter - Dark -->
  <path d="M230 40h14v36c0 10 5 16 14 16s14-6 14-16V40h14v38c0 16-12 26-28 26s-28-10-28-26V40z" fill="#2a2a2a"/>
  
  <!-- "n" Letter - Dark -->
  <path d="M300 40h14v8c4-6 12-10 20-10 14 0 24 10 24 26v32h-14V66c0-10-6-16-14-16-10 0-16 8-16 18v28h-14V40z" fill="#2a2a2a"/>
  
  <!-- "e" Letter - Dark -->
  <path d="M370 40c16 0 28 12 28 28v4h-42c2 10 10 16 20 16 8 0 14-4 18-10l10 8c-6 10-16 16-28 16-18 0-32-14-32-32s14-30 26-30zm14 24c-2-8-8-14-14-14s-14 6-16 14h30z" fill="#2a2a2a"/>
</svg>
