<svg version="1.1" xmlns="http://www.w3.org/2000/svg" style="display: block;" viewBox="0 0 2048 2048" width="1024" height="1024" preserveAspectRatio="none">
<path transform="translate(0,0)" fill="rgb(197,30,38)" d="M 138.933 850.477 C 180.428 849.732 222.15 850.613 263.673 850.265 C 278.146 850.144 292.957 850.083 307.451 850.346 C 328.171 850.723 349.913 849.638 370.214 854.32 C 424.174 866.765 429.268 932.528 417.996 976.924 C 412.881 997.073 403.341 1006.62 386.311 1016.53 C 392.94 1019.67 401.808 1023.62 407.374 1028.01 C 422.622 1040.01 431.53 1063.73 433.222 1082.67 C 436.008 1113.85 433.369 1144.32 413.317 1169.38 C 383.454 1200.95 343.372 1197.47 303.401 1197.18 C 285.912 1197.04 268.422 1197.08 250.933 1197.3 L 181.226 1197.42 C 166.807 1197.5 152.004 1198.08 137.638 1197.3 C 126.319 1196.69 116.178 1193.04 115.072 1180.38 C 113.678 1164.43 114.081 1148.28 114.074 1132.29 L 114.298 1043.28 L 114.298 938.16 C 114.214 917.951 113.821 897.818 114.399 877.611 C 114.941 858.662 119.8 852.534 138.933 850.477 z M 179.941 1138.3 L 291.514 1138.31 C 308.715 1138.28 328.196 1139.36 345.071 1136.86 C 349.423 1136.22 356.299 1131.41 359.6 1128.39 C 368.94 1116.69 369.85 1102.96 369.219 1088.51 C 366.956 1036.65 325.484 1048.16 287.728 1047.01 C 252.946 1045.95 215.288 1047.96 179.555 1046.9 C 180.738 1076.82 178.669 1108.03 179.941 1138.3 z M 180.035 996.296 C 208.133 996.031 236.233 996.054 264.331 996.365 C 284.939 996.569 310.229 997.311 330.607 994.952 C 337.83 994.116 343.873 990.646 349.425 986.008 C 362.427 969.576 363.019 928.362 347.324 915.578 C 336.198 906.515 291.808 909.037 277.028 909.064 L 179.853 909.116 C 179.873 937.095 179.186 968.526 180.035 996.296 z"/>
<path transform="translate(0,0)" fill="rgb(197,30,38)" d="M 770.223 873.225 C 775.357 872.953 780.017 873.28 784.76 875.429 C 790.134 877.824 794.264 882.354 796.155 887.926 C 797.955 893.224 797.519 899.026 794.948 903.996 C 790.832 911.841 784.531 913.976 776.746 916.165 C 772.729 928.66 768.64 941.132 764.479 953.58 C 789.165 962.834 797.348 972.756 814.134 992.242 C 822.464 983.661 834.131 975.413 843.906 968.337 C 842.462 959.741 842.942 957.061 845.628 948.737 C 863.751 930.255 890.809 940.017 887.042 966.719 C 884.58 984.176 864.323 981.684 853.367 983.304 C 852.593 983.419 827.172 1002.64 823.644 1005.16 C 848.354 1055.16 846.374 1099.8 816.075 1146.38 C 818.979 1149.17 823.543 1155.17 826.234 1158.49 C 827.4 1158.31 828.567 1158.14 829.737 1157.98 C 855.209 1154.47 867.889 1179.69 853.215 1194.74 C 848.435 1199.58 841.865 1202.23 835.064 1202.06 C 818.355 1201.63 814.383 1188.13 815.63 1174.02 C 811.18 1170.15 806.732 1165.25 802.608 1160.96 C 762.887 1204.21 693.791 1207.61 645.964 1176.32 C 650.81 1169.73 664.853 1156.69 671.313 1151.56 C 710.586 1188.03 747.322 1184.56 774.422 1136.29 C 768.483 1131.05 762.45 1125.98 757.195 1120.06 C 735.45 1133.78 713.058 1135.89 689.788 1124.98 C 687.905 1123.81 687.004 1123.36 684.986 1122.42 C 671.008 1135.18 650.345 1157.9 635.872 1172.38 C 636.09 1176.32 636.239 1180.2 636.354 1184.14 C 636.706 1196.13 625.219 1205.08 613.655 1204.26 C 607.544 1203.82 601.865 1200.95 597.886 1196.29 C 582.175 1177.8 596.336 1156.85 620.954 1160.75 L 622.385 1160.98 C 633.275 1149.81 662.485 1118.55 673.5 1110.2 L 672.987 1109.27 C 661.705 1088.51 661.31 1074.65 667.941 1052.31 C 655.165 1045.79 609.851 1020.73 599.697 1013.02 C 590.965 1017.38 582.657 1019.99 573.457 1014.68 C 568.17 1011.58 564.453 1006.37 563.234 1000.37 C 562.011 994.491 563.257 988.369 566.681 983.438 C 570.283 978.338 575.69 975.352 581.867 974.629 C 599.535 972.56 605.702 982.388 607.371 998.345 C 629.072 1008.86 655.319 1025.9 677.363 1037.89 C 692.719 1023.36 705.095 1020.52 725.433 1019.11 C 729.876 1003.04 735.567 984.35 741.883 968.96 C 729.062 965.027 715.956 963.219 702.728 966.362 C 677.909 972.258 669.631 992.438 657.597 1011.74 C 645.088 1006.77 631.373 999.585 620.93 991.07 C 652.822 949.547 697.936 936.532 747.884 947.562 C 751.247 936.051 755.73 923.767 759.306 911.967 C 747.678 895.27 750.229 880.865 770.223 873.225 z M 720.496 1111.78 C 740.176 1111.25 755.711 1094.89 755.23 1075.21 C 754.749 1055.52 738.433 1039.94 718.75 1040.37 C 698.987 1040.79 683.329 1057.19 683.812 1076.95 C 684.295 1096.71 700.736 1112.32 720.496 1111.78 z M 760.788 1032.12 C 766.104 1028.21 772.325 1023.85 777.43 1019.8 C 773.162 1007.48 766.139 989.869 756.341 980.648 C 752.172 995.195 747.846 1009.7 743.364 1024.15 C 747.324 1026.83 754.331 1032.46 757.667 1034.01 C 758.929 1033.31 759.618 1032.98 760.788 1032.12 z M 768.899 1048.09 C 778.222 1074.22 776.242 1081.38 768.061 1106.87 C 767.978 1107.12 771.975 1110.44 772.61 1110.94 C 775.221 1113.35 778.027 1115.8 780.456 1118.37 C 785.769 1092.54 786.195 1065.93 781.713 1039.94 L 768.899 1048.09 z"/>
<path transform="translate(0,0)" fill="rgb(61,61,61)" d="M 1793.96 956.419 C 1794.31 956.389 1796.87 956.166 1797.14 956.173 C 1830.5 957.27 1886.16 950.596 1913.74 971.306 C 1935.49 993.875 1932.51 1029.21 1933.09 1058.11 C 1932.97 1067.21 1936.06 1097.75 1922.2 1098.35 C 1904.14 1099.14 1883.22 1098.2 1865.05 1098.17 L 1761.24 1098.9 C 1764.84 1152.88 1785.99 1148.54 1832.33 1148.58 L 1892.63 1148.49 C 1899.89 1148.34 1917.6 1147.42 1923.22 1149.6 C 1931.23 1152.72 1929 1190.16 1924.79 1196.9 C 1918.22 1200.25 1892.5 1198.12 1883.45 1198.14 L 1824.23 1198.42 C 1792.09 1198.57 1760.84 1200.12 1733.81 1179.3 C 1703.4 1155.88 1704.88 1114.94 1704.17 1080.13 C 1703.54 1048.75 1703.33 1009.81 1723.91 983.951 C 1741.05 962.408 1768.35 959.065 1793.96 956.419 z M 1761.44 1059.05 L 1824.25 1059.03 L 1878.84 1059.1 L 1878.72 1057.97 C 1877.35 1044.11 1881.13 1018.88 1869.56 1008.67 C 1862.64 1002.56 1830.54 1003.9 1820.67 1004.45 C 1772.93 1004.95 1762.55 1006.38 1761.44 1059.05 z"/>
<path transform="translate(0,0)" fill="rgb(61,61,61)" d="M 829.2 850.364 C 896.926 849.276 966.045 850.827 1033.91 850.207 C 1051 850.051 1122.73 848.991 1133.24 851.861 C 1139.09 858.589 1139.67 900.882 1134.01 907.336 C 1127.79 910.495 1025.51 909.141 1011.31 909.249 L 1011.16 1074.75 C 1010.79 1114.04 1012.88 1154.36 1009.92 1193.32 C 1009.48 1199.11 954.422 1198.62 949.895 1195.01 C 947 1182.18 947.957 1116.45 948.08 1099.06 C 948.527 1036.08 947.496 972.27 948.269 909.399 C 926.666 909.062 905.061 908.961 883.457 909.097 C 872.287 909.156 835.77 910.476 826.948 907.655 C 819.377 895.796 824.98 869.551 824.225 855.447 C 824.105 853.21 827.589 851.378 829.2 850.364 z"/>
<path transform="translate(0,0)" fill="rgb(61,61,61)" d="M 1127.8 957.133 C 1138.22 957.346 1173.69 956.032 1179.71 959.847 C 1185.52 970.434 1179.5 1088.13 1182.02 1111.23 C 1183.05 1120.71 1185.95 1132.96 1193.88 1138.99 C 1198.06 1142.16 1203.19 1143.88 1208.29 1144.89 C 1224.76 1148.15 1268.98 1148.02 1286.15 1145.99 C 1297.49 1144.65 1310.77 1140.96 1316.98 1130.54 C 1329.6 1109.37 1316.63 968.725 1324.05 959.202 C 1332.85 956.27 1368.92 956.299 1377.71 959.842 C 1381.47 965.726 1379.89 1000.38 1379.81 1008.75 C 1379.72 1030.84 1379.74 1052.93 1379.88 1075.02 C 1379.99 1110.98 1384.1 1147.12 1356.66 1175.69 C 1334.38 1198.9 1288.48 1200.29 1257.81 1200.09 C 1223.72 1199.86 1170.93 1200.63 1145.88 1174.52 C 1137.51 1166.17 1128.16 1148 1126.82 1135.94 C 1120.84 1081.79 1125.92 1025.72 1124.05 971.145 C 1123.86 965.546 1123.76 961.055 1127.8 957.133 z"/>
<path transform="translate(0,0)" fill="rgb(61,61,61)" d="M 1526.52 956.433 C 1563.19 959.346 1607.78 950.627 1639.38 974.083 C 1670.1 996.889 1667.96 1031.29 1667.98 1065.52 L 1668 1122.11 C 1667.99 1144.69 1668.13 1168.11 1667.78 1190.76 C 1667.74 1193.05 1666.75 1194.43 1665.44 1196.16 C 1659.43 1198.76 1654.05 1198.22 1647.56 1197.99 C 1608.4 1196.58 1609.66 1206.48 1609.87 1163.24 L 1610.08 1087.02 C 1610.05 1069.04 1610.49 1051.48 1607.64 1033.64 C 1604.2 1012.11 1583.42 1009.51 1565.25 1009.31 C 1546.78 1009.27 1529.14 1008.24 1510.66 1009.66 C 1472.03 1012.63 1478.15 1055.13 1478.11 1083.96 L 1478.22 1154.97 C 1478.31 1164.41 1480.25 1189.13 1475.33 1195.72 C 1474.41 1196.22 1470.75 1198 1468.03 1197.74 C 1461.72 1196.9 1424.93 1199.73 1422.3 1195.34 C 1417.99 1188.13 1420.7 1122.95 1420.27 1112.5 C 1420.29 1098.89 1420.13 1085.68 1420.13 1072.03 C 1420.13 1043.01 1417.88 1004.02 1439.84 981.453 C 1462.69 957.973 1496.22 957.605 1526.52 956.433 z"/>
<path transform="translate(0,0)" fill="rgb(197,30,38)" d="M 478.335 933.184 C 492.552 932.47 518.269 932.012 531.914 934.391 C 537.4 935.348 536.083 973.257 536.084 980.433 L 536.016 1043.68 L 536.014 1143.82 C 535.99 1159.4 536.112 1175.27 535.945 1190.85 C 535.912 1193.93 535.064 1195.4 533.415 1197.87 C 523.869 1198.38 486.151 1199.01 478.626 1196.75 C 478.345 1196.22 477.997 1195.72 477.782 1195.15 C 473.656 1184.32 475.989 1039.42 476.001 1016.95 C 476.015 992.507 474.512 967.437 475.873 943.07 C 476.081 939.348 476.439 936.447 478.335 933.184 z"/>
<path transform="translate(0,0)" fill="rgb(197,30,38)" d="M 602.27 1029.16 C 608.377 1032.29 614.396 1035.59 620.321 1039.05 C 629.712 1043.85 644.794 1051.4 653.105 1057.31 C 649.251 1077.87 652.396 1095.09 656.643 1115.07 C 638.873 1128.97 633.189 1136.63 618.081 1150.68 C 603.163 1129.84 587.087 1076.54 595.969 1051.41 C 597.109 1044.86 600.222 1035.76 602.27 1029.16 z"/>
<path transform="translate(0,0)" fill="rgb(175,36,36)" d="M 602.27 1029.16 C 608.377 1032.29 614.396 1035.59 620.321 1039.05 C 615.065 1040.08 608.032 1041.35 602.405 1041.58 C 602.349 1041.59 599.977 1044.93 599.701 1045.3 C 597.167 1048.65 599.074 1048.29 595.969 1051.41 C 597.109 1044.86 600.222 1035.76 602.27 1029.16 z"/>
<path transform="translate(0,0)" fill="rgb(197,30,38)" d="M 482.444 845.141 C 489.365 844.853 530.613 842.225 533.443 848.67 C 538.108 859.297 536.806 882.726 536.119 894.742 C 535.894 898.667 533.565 900.039 530.815 901.949 C 523.079 902.253 484.095 903.96 479.102 899.082 C 473.489 893.598 475.502 868.17 475.881 860.189 C 476.197 853.515 477.137 849.657 482.444 845.141 z"/>
<path transform="translate(0,0)" fill="rgb(197,30,38)" d="M 628.599 898.57 C 640.508 897.289 651.213 905.87 652.556 917.772 C 653.899 929.673 645.375 940.424 633.48 941.829 C 621.497 943.245 610.649 934.643 609.296 922.653 C 607.944 910.662 616.602 899.86 628.599 898.57 z"/>
</svg>