<svg version="1.1" xmlns="http://www.w3.org/2000/svg" style="display: block;" viewBox="0 0 2048 2048" width="1024" height="1024" preserveAspectRatio="none">
<path transform="translate(0,0)" fill="rgb(179,26,34)" d="M 172.134 852.342 C 203.066 851.391 235.493 852.23 266.627 852.03 C 298.707 851.852 329.913 851.64 361.787 854.755 C 416.521 860.104 442.932 901.38 435.468 954.115 C 431.365 983.105 420.055 994.714 397.397 1011.63 C 428.694 1028.11 443.395 1053.37 443.105 1088.96 C 442.865 1118.43 436.265 1144.26 415.015 1165.61 C 387.582 1190.71 362.339 1192.96 326.908 1194.5 C 278.942 1196.58 231.076 1195.53 183.078 1196.04 C 166.931 1196.22 151.208 1196.63 135.273 1193.55 C 133.629 1174.68 135.36 1152.57 136.562 1133.56 L 141.129 1061.44 L 148.097 947.471 C 149.584 921.838 150.847 896.148 153.132 870.577 C 154.372 856.702 160.139 854.853 172.134 852.342 z M 209.111 1044.27 C 206.093 1072.73 205.446 1108.76 201.744 1135.85 L 290.635 1136.13 C 313.55 1136.24 345.503 1139.25 363.224 1121.89 C 379.101 1106.34 380.546 1070.48 363.452 1055.26 C 345.982 1039.72 313.279 1043.03 291.34 1043.48 C 263.933 1044.03 236.522 1044.29 209.111 1044.27 z M 212.156 990.272 C 237.469 989.99 262.783 989.941 288.097 990.124 C 307.993 990.146 338.913 992.701 355.106 980.343 C 360.04 975.016 364.398 969.224 365.965 962.023 C 378.367 905.03 322.106 910.756 287.484 910.77 L 216.903 910.937 C 214.859 924.909 212.028 976.1 212.156 990.272 z"/>
<path transform="translate(0,0)" fill="rgb(48,47,48)" d="M 1805.36 963.446 C 1828.8 962.548 1872.27 966.014 1891.27 981.047 C 1915.75 1000.41 1923.21 1064.56 1903.97 1089.3 C 1892.14 1104.51 1860.03 1100.76 1842.38 1101.45 C 1812.52 1102.61 1781.06 1100.35 1751.04 1102.03 C 1752.49 1146.69 1787.03 1151.69 1822.56 1150.22 C 1845.1 1149.29 1869.7 1150.42 1892.37 1150.68 L 1893.2 1152 C 1899.45 1161.95 1901.7 1179.45 1894.74 1189.76 C 1891.93 1193.91 1885.95 1196.55 1881.01 1196.93 C 1865.65 1198.14 1850.15 1197.67 1834.76 1197.75 C 1797.95 1197.26 1754.25 1201.28 1724.36 1175.76 C 1703.83 1158.23 1695.14 1134.28 1693.36 1107.98 C 1690.89 1071.43 1694.46 1022.9 1719.8 993.976 C 1742.02 968.6 1774.17 965.788 1805.36 963.446 z M 1803.75 1061.1 C 1838.59 1062.98 1870.8 1068.1 1855.22 1019.76 C 1839.66 1009.19 1825.04 1006.14 1806.24 1007.31 C 1770.21 1011.23 1756.07 1025.31 1751.19 1061.15 C 1768.71 1061.01 1786.23 1061 1803.75 1061.1 z"/>
<path transform="translate(0,0)" fill="rgb(179,26,34)" d="M 773.749 878.231 C 786.919 877.42 800.629 880.141 798.217 897.483 C 796.653 908.726 789.21 914.154 780.559 920.268 C 775.848 930.211 771.333 947.287 768.188 958.193 C 790.638 970.263 796.873 976.483 813.355 994.839 C 821.689 987.09 834.762 977.528 844.066 970.876 C 844.06 970.126 844.063 969.377 844.077 968.628 C 845.138 917.308 909.709 958.834 869.845 983.732 C 865.094 984.102 858.272 983.882 853.358 983.873 C 842.185 991.668 832.473 999.152 820.846 1006.85 C 843.237 1067.32 842.083 1093.34 811.439 1149.89 C 815.335 1154.05 816.556 1155.23 821.156 1158.56 C 829.59 1159.18 838.362 1159.69 844.948 1165.56 C 863.317 1181.93 835.737 1211.65 818.514 1193.63 C 812.711 1187.56 812.806 1175.55 809.344 1168.23 C 808.272 1165.96 803.868 1161.48 802.025 1159.53 C 782.175 1175.73 761.406 1191.76 735.078 1194.14 C 702.747 1197.06 679.785 1194.54 654.302 1175.09 C 659.163 1162.56 665.661 1158.57 676.578 1151.68 C 683.155 1156.84 690.021 1162.81 697.335 1166.79 C 733.629 1186.5 756.148 1166.97 772.883 1136.59 C 767.101 1129.87 760.892 1124.32 754.413 1118.31 C 731.308 1130.31 717.799 1133.99 693.661 1119.77 C 686.628 1125.6 639.507 1170.15 636.055 1174.96 C 636.289 1183.54 636.846 1191.43 630.64 1198.28 C 623.772 1205.85 611.694 1200.46 605.995 1194.48 C 601.73 1190.03 599.485 1184.02 599.79 1177.86 C 600.493 1162.91 615.154 1160.96 626.939 1162.14 C 645.477 1146.08 665.196 1125.3 681.253 1106.9 C 680.123 1104.97 679.076 1103 678.114 1100.99 C 669.878 1083.66 672.318 1067.93 678.777 1050.94 C 654.874 1040.49 633.859 1028.6 610.81 1016.49 C 602.011 1016.95 584.123 1020.88 578.678 1011.26 C 571.001 997.693 584.515 974.754 601.177 980.091 C 611.709 983.465 616.365 995.16 620.847 1004.23 C 642.287 1013.35 666.666 1026.27 686.874 1038.01 C 699.871 1024.7 712.836 1021.81 730.517 1020.86 C 735.739 1005.36 740.873 989.829 745.918 974.269 C 694.006 960.563 694.547 980.445 666.931 1013.02 L 666.092 1013.99 C 659.645 1011.44 640.962 1002.83 637.953 997.4 C 631.985 986.619 660.315 966.95 667.558 962.969 C 695.097 947.833 722.125 945.364 752.03 953.782 C 756.102 940.384 761.956 929.737 765.473 915.057 C 755.737 899.746 757.819 886.932 773.749 878.231 z M 714.144 1041.67 C 695.339 1045.95 683.543 1064.64 687.772 1083.45 C 692.001 1102.27 710.66 1114.12 729.488 1109.94 C 748.387 1105.74 760.287 1087 756.042 1068.11 C 751.797 1049.22 733.021 1037.37 714.144 1041.67 z M 762.576 1038.32 C 768.01 1033.43 773.261 1028.71 778.881 1024.04 C 774.554 1008.15 771.58 993.454 759.374 981.643 C 754.062 996.134 748.231 1011.28 743.234 1025.81 C 746.9 1028.41 759.16 1037.63 762.576 1038.32 z M 768.597 1047.84 C 771.905 1056.4 774.96 1067.95 774.461 1077.14 C 773.912 1087.25 767.916 1097.4 766.583 1107.37 C 766.579 1107.41 769.174 1110.67 769.669 1111.16 L 777.089 1118.44 C 780.269 1105.16 784.813 1052.22 779.865 1042.09 L 778.783 1041.87 L 768.597 1047.84 z"/>
<path transform="translate(0,0)" fill="rgb(48,47,48)" d="M 818.172 852.039 C 905.007 852.861 992.282 850.749 1079.17 851.692 C 1102.2 851.942 1125.71 851.198 1148.64 853.622 C 1148.79 872.338 1147.79 890.176 1146.61 908.839 C 1108.05 911.289 1055.31 909.308 1015.16 909.792 C 1012.51 927.525 1012.24 956.314 1011.4 974.781 C 1009.94 1007.07 1008.37 1039.65 1007.67 1071.94 C 1005.78 1087.03 1007.34 1186.19 998.56 1192.9 C 989.539 1199.8 953.32 1196.01 942.198 1194.06 C 940.481 1175.08 941.998 1145.05 943.01 1125.52 L 947.286 1043.85 L 951.346 955.551 C 951.928 941.033 951.646 924.356 952.964 910.307 C 911.39 910.293 856.768 912.701 817.405 908.941 C 815.746 885.103 817.461 874.622 818.172 852.039 z"/>
<path transform="translate(0,0)" fill="rgb(48,47,48)" d="M 1164.1 964.545 C 1173.94 964.16 1191.61 961.676 1199.39 968.35 C 1202.58 971.088 1202.84 975.191 1203.09 979.134 C 1203.82 991.124 1202.31 1003.76 1201.4 1015.74 C 1199 1047.25 1194.9 1080.61 1199.55 1112.05 C 1201.21 1123.25 1204.31 1133.4 1214.01 1140.25 C 1230.07 1151.57 1256.4 1153.08 1275.22 1150.1 C 1286.52 1148.32 1300.72 1144.52 1308.24 1135.35 C 1333.15 1104.92 1313.71 982.394 1326.12 968.845 C 1329.53 965.121 1336.81 964.595 1341.48 964.392 C 1350.05 964.02 1373.93 963.168 1380.12 968.935 C 1384.61 980.023 1381.23 1018.79 1380.46 1032.84 C 1377.37 1074.89 1383.39 1122.14 1358.92 1159.28 C 1345.26 1180.02 1325.15 1191.24 1301.2 1196.16 C 1265.11 1203.58 1206.7 1203.17 1174.96 1181.7 C 1155.72 1168.69 1145.73 1148.74 1141.65 1126.3 C 1139.98 1117.13 1139.23 1107.73 1138.98 1098.42 C 1138.48 1079.86 1140.25 976.663 1147.56 967.484 C 1150.29 964.056 1160.02 964.713 1164.1 964.545 z"/>
<path transform="translate(0,0)" fill="rgb(48,47,48)" d="M 1523.55 964.402 C 1556.9 960.902 1607.86 963.922 1632.65 989.46 C 1641.12 998.341 1647.07 1009.32 1649.9 1021.26 C 1657.33 1051.39 1652.44 1078.26 1651.79 1108.28 C 1651.16 1137.37 1648.27 1166.87 1647.93 1195.79 C 1632.85 1196.55 1618.33 1197.23 1603.22 1196.45 C 1585.13 1195.51 1590.86 1169.19 1591.67 1156.07 C 1593.18 1133.66 1594.27 1111.22 1594.94 1088.77 C 1596.18 1051.73 1600.94 1015.24 1552.75 1011.65 C 1536.8 1010.47 1517.42 1011.76 1503.39 1020.18 C 1492.9 1026.04 1494.39 1028.89 1487.98 1037.82 C 1476.71 1053.51 1480.28 1187.65 1473.52 1193.53 C 1470.19 1196.43 1425.39 1196.92 1419.63 1194.99 C 1414.6 1186.7 1421.87 1096.09 1422.14 1080.78 C 1423.41 1008.28 1448.49 969.062 1523.55 964.402 z"/>
<path transform="translate(0,0)" fill="rgb(179,26,34)" d="M 497.129 930.24 C 515.59 929.901 533.528 929.627 551.961 930.926 C 547.013 1016.97 549.007 1104.07 540.87 1189.9 C 540.662 1192.09 536.707 1193.65 535.015 1194.57 C 514.408 1195.92 502.381 1196.92 481.993 1192.43 C 481.901 1122.56 487.601 1052.35 489.809 982.515 C 490.308 966.752 490.357 950.597 492.269 934.995 C 492.55 932.703 495.362 931.294 497.129 930.24 z"/>
<path transform="translate(0,0)" fill="rgb(179,26,34)" d="M 611.259 1029.6 C 625.252 1034.13 647.68 1047.56 660.64 1055.23 C 659.621 1075.62 658.923 1095.36 662.995 1115.46 C 656.536 1123.08 649.655 1129.12 642.309 1135.82 C 636.825 1140.22 631.052 1146.05 625.905 1150.99 C 621.705 1145.08 618.061 1138.79 615.022 1132.2 C 598.805 1097.79 598.539 1064.87 611.259 1029.6 z"/>
<path transform="translate(0,0)" fill="rgb(179,26,34)" d="M 512.556 846.437 C 520.277 846.228 543.289 844.406 548.73 848.907 C 560.192 858.389 559.322 888.203 549.991 899.274 C 547.15 902.646 543.71 902.698 539.658 902.981 L 493.107 902.005 C 492.442 888.593 489.022 859.924 497.703 850.688 C 501.876 846.247 506.852 846.746 512.556 846.437 z"/>
<path transform="translate(0,0)" fill="rgb(179,26,34)" d="M 634.937 903.43 C 644.31 900.451 654.318 905.666 657.247 915.055 C 660.175 924.445 654.906 934.424 645.501 937.301 C 636.168 940.157 626.281 934.937 623.375 925.619 C 620.469 916.302 625.635 906.387 634.937 903.43 z"/>
</svg>